<?xml version="1.0" encoding="UTF-8"?>
<svg version="1.1" xmlns="http://www.w3.org/2000/svg" width="187" height="187">
<path d="M0 0 C61.71 0 123.42 0 187 0 C187 61.71 187 123.42 187 187 C125.29 187 63.58 187 0 187 C0 125.29 0 63.58 0 0 Z " fill="#141414" transform="translate(0,0)"/>
<path d="M0 0 C5.93785799 4.70999721 9.85711961 10.14280641 13 17 C13.47953125 17.9590625 13.47953125 17.9590625 13.96875 18.9375 C18.30779703 29.22264851 17.34027206 42.07444441 13.3125 52.25 C12.5031497 54.20281825 11.67149165 56.14324482 10.82128906 58.07861328 C9.47211938 61.23496446 8.33840808 64.4535156 7.1875 67.6875 C6.78917969 68.78449219 6.39085937 69.88148437 5.98046875 71.01171875 C2.90734555 80.37801058 3.20434073 89.27113265 6.3125 98.55078125 C7.48338933 102.72207449 7.80374458 106.73105471 7 111 C3.9408545 115.31879365 0.99596796 116.62879161 -4 118 C-18.35588613 119.39661336 -34.06718609 117.37892452 -46.34765625 109.46484375 C-48 108 -48 108 -49 105 C-49.87140625 105.433125 -50.7428125 105.86625 -51.640625 106.3125 C-59.42139075 109.95026061 -66.22876566 112.71146036 -75 111 C-80.77194759 108.01095571 -82.28054456 103.90107382 -84.26171875 97.8515625 C-85.12201835 94.5287122 -85.53810101 91.32674949 -85.78515625 87.91015625 C-85.92151883 85.85328808 -85.92151883 85.85328808 -87.0625 83.5625 C-88.55801129 79.47476915 -88.150571 75.30800355 -88 71 C-88.721875 70.9175 -89.44375 70.835 -90.1875 70.75 C-93.82010511 69.7813053 -95.54751916 68.88527158 -98 66 C-98.91085393 61.38820274 -97.57114273 57.93404365 -95.16796875 54.00390625 C-90.40654206 47.40654206 -90.40654206 47.40654206 -88 45 C-88.09370427 43.55816328 -88.25237943 42.12047034 -88.4375 40.6875 C-88.63159981 38.792331 -88.81866774 36.8964332 -89 35 C-89.0928125 34.03964844 -89.185625 33.07929687 -89.28125 32.08984375 C-89.84657542 21.36279394 -85.54974417 13.69290249 -78.75 5.625 C-58.87427109 -15.22109278 -23.03513655 -15.22454721 0 0 Z " fill="#171717" transform="translate(138,41)"/>
<path d="M0 0 C5.93785799 4.70999721 9.85711961 10.14280641 13 17 C13.47953125 17.9590625 13.47953125 17.9590625 13.96875 18.9375 C18.30779703 29.22264851 17.34027206 42.07444441 13.3125 52.25 C12.5031497 54.20281825 11.67149165 56.14324482 10.82128906 58.07861328 C9.47211938 61.23496446 8.33840808 64.4535156 7.1875 67.6875 C6.78917969 68.78449219 6.39085937 69.88148437 5.98046875 71.01171875 C2.90734555 80.37801058 3.20434073 89.27113265 6.3125 98.55078125 C7.48338933 102.72207449 7.80374458 106.73105471 7 111 C3.9408545 115.31879365 0.99596796 116.62879161 -4 118 C-18.35588613 119.39661336 -34.06718609 117.37892452 -46.34765625 109.46484375 C-48 108 -48 108 -49 105 C-49.87140625 105.433125 -50.7428125 105.86625 -51.640625 106.3125 C-59.42139075 109.95026061 -66.22876566 112.71146036 -75 111 C-80.77194759 108.01095571 -82.28054456 103.90107382 -84.26171875 97.8515625 C-85.12201835 94.5287122 -85.53810101 91.32674949 -85.78515625 87.91015625 C-85.92151883 85.85328808 -85.92151883 85.85328808 -87.0625 83.5625 C-88.55801129 79.47476915 -88.150571 75.30800355 -88 71 C-88.721875 70.9175 -89.44375 70.835 -90.1875 70.75 C-93.82010511 69.7813053 -95.54751916 68.88527158 -98 66 C-98.91085393 61.38820274 -97.57114273 57.93404365 -95.16796875 54.00390625 C-90.40654206 47.40654206 -90.40654206 47.40654206 -88 45 C-88.09370427 43.55816328 -88.25237943 42.12047034 -88.4375 40.6875 C-88.63159981 38.792331 -88.81866774 36.8964332 -89 35 C-89.0928125 34.03964844 -89.185625 33.07929687 -89.28125 32.08984375 C-89.84657542 21.36279394 -85.54974417 13.69290249 -78.75 5.625 C-58.87427109 -15.22109278 -23.03513655 -15.22454721 0 0 Z M-69 6 C-69.99 6.70125 -70.98 7.4025 -72 8.125 C-76.75211847 12.13734277 -80.053111 18.159333 -82 24 C-82.09377689 25.83140741 -82.12992957 27.66619987 -82.125 29.5 C-82.12757812 30.4590625 -82.13015625 31.418125 -82.1328125 32.40625 C-82.10992972 35.11571152 -82.10992972 35.11571152 -81 38 C-80.29545927 41.19037311 -80.23593167 43.81001472 -81 47 C-83.06975563 50.05455872 -85.33745467 52.7092365 -87.8359375 55.421875 C-89.93182208 57.91877721 -90.99388046 59.9263601 -92 63 C-88.45648927 64.61989062 -85.87280581 65.10414268 -82 65 C-82.03480469 66.02480469 -82.06960937 67.04960938 -82.10546875 68.10546875 C-82.13362035 69.46612936 -82.16091904 70.8268078 -82.1875 72.1875 C-82.21263672 72.86103516 -82.23777344 73.53457031 -82.26367188 74.22851562 C-82.33126356 78.84728103 -81.42294572 81.17333258 -79 85 C-78.3450238 88.5368715 -77.99501074 92.0482295 -77.625 95.625 C-76.97513063 99.13429458 -76.23456905 101.22605221 -74 104 C-68.04863616 106.27872994 -61.55198284 103.3284977 -56.0625 100.9375 C-45.70893055 96.18930489 -36.84580734 90.29927987 -28.5012207 82.55566406 C-26.00482769 80.31662712 -24.504285 79.05534835 -21.1171875 78.68359375 C-20.41851562 78.78800781 -19.71984375 78.89242187 -19 79 C-18.67 80.65 -18.34 82.3 -18 84 C-18.60070312 84.2784375 -19.20140625 84.556875 -19.8203125 84.84375 C-22.44116348 86.2340222 -24.43938258 88.11512483 -26.65234375 90.0703125 C-31.86241805 94.35280286 -37.48224169 98.12762038 -43 102 C-39.03429402 106.33108563 -35.53351125 107.47693257 -30 109 C-29.33226562 109.20753906 -28.66453125 109.41507812 -27.9765625 109.62890625 C-22.97156167 111.00000801 -17.98100965 111.23542831 -12.8125 111.3125 C-12.13501709 111.33014404 -11.45753418 111.34778809 -10.75952148 111.3659668 C-6.10684462 111.35968788 -2.98915898 110.35130833 1 108 C0.51581831 104.32021919 -0.33073692 101.04281171 -1.5625 97.5625 C-6.10985093 82.54723726 -1.61252366 68.22296684 4.828125 54.56640625 C9.85711492 43.55291832 10.98255471 31.67387054 6.90625 20.10546875 C3.09574368 11.2526114 -3.57815498 5.29742511 -12.08203125 1.140625 C-20.60472409 -2.19086939 -28.13901729 -3.55315123 -37.3125 -3.5 C-38.41247314 -3.49645508 -39.51244629 -3.49291016 -40.64575195 -3.48925781 C-51.52256777 -3.26713416 -60.267991 -0.81522654 -69 6 Z " fill="#F4F4F4" transform="translate(138,41)"/>
<path d="M0 0 C1.32 0 2.64 0 4 0 C3.4228363 4.9459339 2.36321145 9.33262561 0.71484375 14.02734375 C0.49429825 14.66112442 0.27375275 15.29490509 0.04652405 15.94789124 C-0.6505118 17.9465772 -1.35632764 19.94202627 -2.0625 21.9375 C-2.54030066 23.30252901 -3.01751967 24.66776176 -3.49414062 26.03320312 C-4.65605183 29.35784861 -5.82585132 32.67965369 -7 36 C-8.32 36 -9.64 36 -11 36 C-10.51955623 27.96972558 -8.20673158 21.04197653 -5.5 13.5 C-5.08363281 12.30890625 -4.66726562 11.1178125 -4.23828125 9.890625 C-1.15790344 1.15790344 -1.15790344 1.15790344 0 0 Z " fill="#F1F1F1" transform="translate(106,56)"/>
<path d="M0 0 C4.80167331 0.45069858 7.00192278 2.40659794 10.375 5.75 C11.26960938 6.61109375 12.16421875 7.4721875 13.0859375 8.359375 C15 11 15 11 15.08984375 13.4921875 C13.65416255 16.79579801 11.73310042 18.83312666 9.1875 21.375 C8.31480469 22.26960938 7.44210938 23.16421875 6.54296875 24.0859375 C4 26 4 26 1.67578125 25.7890625 C1.12277344 25.52867188 0.56976563 25.26828125 0 25 C0.15404113 19.91664275 3.02068432 17.64245282 6.50390625 14.35546875 C6.99761719 13.90816406 7.49132812 13.46085937 8 13 C7.04270084 11.87411986 6.08412105 10.7493285 5.125 9.625 C4.59132813 8.99851562 4.05765625 8.37203125 3.5078125 7.7265625 C2.38567993 6.44163349 1.20628025 5.20628025 0 4 C0 2.68 0 1.36 0 0 Z " fill="#EEEEEE" transform="translate(115,61)"/>
<path d="M0 0 C-0.15404113 5.08335725 -3.02068432 7.35754718 -6.50390625 10.64453125 C-6.99761719 11.09183594 -7.49132812 11.53914063 -8 12 C-6.35333518 15.70899261 -4.24611293 17.79289579 -1.2421875 20.4375 C0 22 0 22 0 26 C-4.80167331 25.54930142 -7.00192278 23.59340206 -10.375 20.25 C-11.26960938 19.38890625 -12.16421875 18.5278125 -13.0859375 17.640625 C-15 15 -15 15 -15.08984375 12.50390625 C-13.65663217 9.21111549 -11.73833306 7.20845507 -9.1875 4.6875 C-7.87845703 3.36298828 -7.87845703 3.36298828 -6.54296875 2.01171875 C-4 0 -4 0 0 0 Z " fill="#F6F6F6" transform="translate(90,61)"/>
</svg>
